<svg xmlns="http://www.w3.org/2000/svg" width="1200" height="700" viewBox="0 0 1200 700" role="img" aria-labelledby="title desc">
<title id="title">Code Helper test evidence dashboard</title><desc id="desc">Interview test evidence visualization generated from recorded JSON.</desc>
<style>text{font-family:"Segoe UI",Arial,sans-serif;fill:#1f2937}.title{font-size:24px;font-weight:700}.subtitle{font-size:14px;fill:#64748b}.label{font-size:14px}.value{font-size:14px;font-weight:700}.axis{font-size:12px;fill:#64748b}.grid{stroke:#e2e8f0;stroke-width:1}.panel{fill:#f8fafc;stroke:#cbd5e1;stroke-width:1}.pass{fill:#0f766e}.accent{fill:#0e7490}.warn{fill:#d97706}.muted{fill:#94a3b8}</style><rect width="1200" height="700" fill="#ffffff"/><text x="50" y="52" class="title">Code Helper test evidence dashboard</text><text x="50" y="80" class="subtitle">Run 2026-09-01_125804_e3d2e699 · commit e3d2e6996357</text><rect x="50" y="125" width="500" height="110" rx="14" fill="#f8fafc" stroke="#cbd5e1"/><rect x="50" y="125" width="10" height="110" rx="5" fill="#0f766e"/><text x="82" y="161" class="label">Quality gates</text><text x="82" y="205" class="title">15/15</text><rect x="610" y="125" width="500" height="110" rx="14" fill="#f8fafc" stroke="#cbd5e1"/><rect x="610" y="125" width="10" height="110" rx="5" fill="#0e7490"/><text x="642" y="161" class="label">Tests</text><text x="642" y="205" class="title">366</text><rect x="50" y="275" width="500" height="110" rx="14" fill="#f8fafc" stroke="#cbd5e1"/><rect x="50" y="275" width="10" height="110" rx="5" fill="#7c3aed"/><text x="82" y="311" class="label">Line / branch</text><text x="82" y="355" class="title">86.46% / 75.00%</text><rect x="610" y="275" width="500" height="110" rx="14" fill="#f8fafc" stroke="#cbd5e1"/><rect x="610" y="275" width="10" height="110" rx="5" fill="#15803d"/><text x="642" y="311" class="label">Agent completion</text><text x="642" y="355" class="title">100%</text><text x="50" y="450" class="value">Coverage target status</text><rect x="50" y="475" width="1000" height="30" rx="8" fill="#e2e8f0"/><rect x="50" y="475" width="1000.0" height="30" rx="8" class="pass"/><text x="50" y="540" class="axis">15/15 quality commands passed · security audit 0 high-risk findings · mutation 5/5 killed</text></svg>